<?xml version="1.0" encoding="UTF-8"?>
<svg id="Laag_2" data-name="Laag 2" xmlns="http://www.w3.org/2000/svg" viewBox="0 0 787.04 795.38">
  <defs>
    <style>
      .cls-1 {
        fill: #fff;
        stroke-width: 0px;
      }
    </style>
  </defs>
  <g id="Layer_1" data-name="Layer 1">
    <path class="cls-1" d="m353.57,0c26.63,0,53.27,0,79.9,0,1.36.65,2.68,1.72,4.09,1.85,3.3.3,6.73-.31,9.96.27,9.55,1.71,19.03,3.81,28.53,5.79,3.01.63,6.01,1.29,9,2.03,6.89,1.71,13.8,3.34,20.64,5.26,4.83,1.36,9.57,3.06,14.31,4.72,8.54,3.01,17.22,5.71,25.53,9.27,8.94,3.83,17.64,8.26,26.23,12.84,11.21,5.99,22.42,12.04,33.21,18.73,7.88,4.88,15.2,10.69,22.56,16.35,9.71,7.47,19.84,14.55,28.69,22.96,15.18,14.43,30.42,28.88,42.59,46.16,3.48,4.94,8.21,9.01,11.64,13.98,6.08,8.82,11.76,17.92,17.31,27.09,8.83,14.59,18.05,28.96,23.71,45.28,3.54,10.21,8.22,20.01,11.91,30.17,4.17,11.46,8.21,23.01,11.55,34.73,2.64,9.27,4.34,18.84,6.09,28.34,1.61,8.75,3.08,17.56,3.98,26.41,1.02,10.1,2.03,20.29,1.8,30.41-.34,14.8,1.42,29.59-1.36,44.48-1.5,8.06-2.51,16.26-4.06,24.39-2.02,10.65-5.97,20.4-10.27,30.17-5.49,12.49-12.72,23.93-21.61,34.18-4.26,4.91-9.59,9-14.8,12.97-6.33,4.83-12.76,9.68-19.67,13.59-14.98,8.48-31.01,13.57-48.52,13.05-7.98-.24-15.98-.02-23.97-.06-1.48,0-3.04.02-4.43-.41-5.71-1.74-11.27-4.17-17.08-5.4-11.72-2.47-21.64-8.7-30.32-16.1-12.48-10.65-23.93-22.55-30.7-38.12-4.26-9.8-9.57-19.13-10.84-30.02-.41-3.51-1.46-6.95-2.07-10.44-1.33-7.64-3.53-15.27-3.66-22.94-.45-25.46-.13-50.94-.14-76.41,0-1.04-.24-2.08-.5-4.28-1.31,2.21-1.99,3.42-2.73,4.59-6.22,9.91-12.46,19.81-18.67,29.73-3.79,6.06-7.5,12.17-11.28,18.23-4.29,6.89-8.65,13.74-12.94,20.63-4.46,7.18-8.84,14.41-13.31,21.59-4.12,6.62-8.37,13.15-12.47,19.78-4.53,7.33-8.87,14.77-13.43,22.08-4.05,6.48-8.15,12.94-12.47,19.24-5.69,8.31-11.13,16.87-17.6,24.55-4.6,5.47-10.64,9.77-16.18,14.42-7.15,6-15.87,9.45-24.69,10.92-9.98,1.67-20.27.64-29.91-3.66-10.11-4.52-18.28-11.24-23.25-21.1-3.69-7.33-7.88-14.5-8.6-23.15-.53-6.37-3.54-12.62-3.58-18.94-.3-44.95-.13-89.9-.13-134.85,0-1-.34-2-.67-3.86-4.91,8.4-9.21,16.01-13.77,23.47-4.57,7.49-9.38,14.83-14.11,22.22-3.59,5.61-7.22,11.2-10.79,16.82-4.26,6.72-8.53,13.44-12.68,20.22-3.14,5.13-6.01,10.44-9.16,15.56-4.17,6.78-8.51,13.45-12.76,20.17-3.73,5.91-7.43,11.84-11.15,17.76-4.32,6.87-8.67,13.73-12.95,20.63-4.46,7.18-8.83,14.42-13.3,21.6-4.12,6.62-8.4,13.14-12.48,19.78-4.42,7.2-8.63,14.54-13.06,21.74-4.26,6.91-8.68,13.72-13.03,20.58-3.75,5.9-7.01,12.2-11.41,17.56-2.8,3.41-2.24,4.91.46,7.61,15.5,15.51,30.82,31.17,49.3,43.29,9.26,6.07,17.85,13.35,27.61,18.41,17.89,9.28,35.51,19.33,55.22,24.7,10.43,2.84,20.59,6.75,31.08,9.33,10.52,2.59,21.26,4.46,31.99,6.02,8.42,1.22,16.97,1.76,25.48,2.09,8.81.34,17.64.08,26.46.07,1.33,0,2.67,0,3.98-.18,9.18-1.24,18.35-2.54,27.52-3.8,5.49-.75,11.08-1.07,16.46-2.28,6.6-1.49,13.06-3.65,19.54-5.65,10.66-3.29,21.39-6.39,31.88-10.14,8.7-3.11,17.51-6.32,25.57-10.76,12.82-7.06,25.24-14.89,37.47-22.96,9.77-6.45,19.11-13.58,28.42-20.71,5.21-3.98,9.82-8.73,14.94-12.84,11.17-8.97,23.78-8.58,36.34-4.2,8.16,2.85,15.27,7.98,18.73,16.42,1.51,3.68.92,8.39,2.88,11.68,4.44,7.46.21,14.4-1.26,20.86-2.38,10.47-11.79,16.89-19.46,23.78-7.49,6.73-16.02,12.3-24.06,18.42-6.11,4.65-11.78,10.04-18.35,13.89-14.14,8.27-28.56,16.1-43.19,23.46-10,5.03-20.63,8.78-30.84,13.42-16.32,7.42-33.39,12.29-50.93,15.72-3.82.75-7.6,1.66-11.4,2.46-5.53,1.16-11.06,2.35-16.61,3.41-1.45.28-3,.02-4.47.25-7.51,1.17-15.03,3.59-22.51,3.43-26.97-.58-54.01,2.42-80.91-1.59-7.11-1.06-14.32-1.41-21.48-2.12-.65-.06-1.27-.32-1.91-.47-4.87-1.16-9.72-2.37-14.6-3.45-7.12-1.57-14.4-2.59-21.36-4.67-8.97-2.67-17.75-6.01-26.53-9.3-11.52-4.32-23.11-8.51-34.37-13.45-7.59-3.33-14.63-7.89-21.96-11.81-3.89-2.08-8.12-3.61-11.78-6.01-8.99-5.89-17.93-11.88-26.54-18.31-12.02-8.99-24.39-17.69-35.37-27.85-12.6-11.66-23.7-24.92-35.73-37.21-10.36-10.59-19.11-22.34-26.83-34.91-7.4-12.04-15.02-23.97-22.08-36.21-4.73-8.2-9.02-16.69-12.88-25.34-4.27-9.56-7.94-19.41-11.66-29.2-1.77-4.66-3.26-9.45-4.56-14.27-1.64-6.06-2.84-12.23-4.45-18.3-1.73-6.51-4.04-12.89-5.48-19.46-1.7-7.72-2.93-15.56-3.99-23.41-.96-7.11-1.52-14.28-2.05-21.44-.26-3.48.14-7-.13-10.48-.11-1.39-1.21-2.7-1.86-4.04,0-17.31,0-34.63,0-51.94.65-.85,1.79-1.65,1.87-2.54.79-8.97,1.3-17.96,2.11-26.93.51-5.66,1.27-11.31,2.13-16.93.56-3.66,1.39-7.29,2.33-10.88,1.74-6.67,3.66-13.3,5.5-19.95,1.75-6.34,3.28-12.75,5.31-18.99,1.94-5.97,4.41-11.78,6.65-17.66,3.09-8.12,5.67-16.49,9.4-24.31,6.04-12.65,12.77-24.97,19.33-37.36,2.59-4.88,5.21-9.8,8.38-14.3,5.82-8.25,12.04-16.22,18.12-24.28,6.18-8.19,11.62-17.11,18.74-24.38,15.39-15.73,31.65-30.62,47.56-45.85.24-.23.44-.51.71-.7,10.46-7.18,21.03-14.2,31.36-21.55,13.16-9.35,27.04-17.37,41.84-23.78,13.7-5.93,27.27-12.27,41.27-17.43,12.71-4.68,25.89-8.07,38.91-11.89,3.72-1.09,7.59-1.69,11.39-2.5,5.53-1.17,11.02-2.62,16.61-3.39,7.28-1.01,14.65-1.42,21.96-2.23.76-.08,1.4-1.17,2.1-1.78Zm42.42,443.99c4.01-6.35,7.28-11.38,10.39-16.49,2.87-4.72,5.49-9.6,8.4-14.29,4.12-6.62,8.46-13.11,12.63-19.7,3.81-6.04,7.53-12.14,11.27-18.23,4.93-8.02,9.88-16.04,14.77-24.09,4.39-7.22,8.56-14.58,13.11-21.7,5.33-8.36,11.48-16.24,16.34-24.86,6.41-11.36,14.77-21.16,23.41-30.66,4.86-5.35,11.52-9.04,17.25-13.64,7.19-5.77,15.66-9.47,24.43-10.28,9.18-.84,19.03-.4,27.83,2.15,13.18,3.81,22.82,13.32,29.42,25.4,3.88,7.1,7.59,14.27,8.4,22.68.59,6.21,3.29,12.27,3.53,18.45,1.52,39.58-2.43,79.27,2.18,118.81.5,4.33.63,9,2.41,12.83,5.57,11.94,11.93,23.1,25.55,28.33,9.28,3.56,17.78,2.95,26.38-.84,4.45-1.96,8.93-4.19,12.75-7.13,3.9-3,7.8-6.55,10.3-10.69,4.24-7.03,8.07-14.48,10.77-22.21,2.69-7.68,5.12-15.89,5.28-23.92.31-15.62-.93-31.28-1.77-46.9-.35-6.5-1.31-12.97-2-19.45-.03-.32-.21-.63-.28-.95-1.22-5.66-2.5-11.3-3.64-16.97-.86-4.28-1.22-8.69-2.36-12.88-1.6-5.87-3.65-11.63-5.65-17.39-3.01-8.65-5.75-17.43-9.33-25.84-3.8-8.92-8.2-17.62-12.8-26.16-4.7-8.73-9.8-17.27-15.04-25.69-3.17-5.1-6.87-9.89-10.46-14.73-5.82-7.84-11.18-16.12-17.75-23.29-10.33-11.27-21.41-21.86-32.37-32.53-3.98-3.88-8.32-7.46-12.85-10.69-7.67-5.47-15.54-10.68-23.48-15.76-7.94-5.09-15.73-10.58-24.18-14.65-12.56-6.05-25.8-10.66-38.48-16.49-15.48-7.12-31.85-10.75-48.47-13.61-4.32-.75-8.65-1.48-12.98-2.14-8.5-1.3-16.99-3.44-25.52-3.62-18.32-.4-36.7-1.13-54.95,1.77-6.28,1-12.67,1.34-18.97,2.21-3.68.51-7.34,1.34-10.94,2.29-6.55,1.73-13.07,3.59-19.56,5.53-7.89,2.36-15.84,4.56-23.57,7.38-6.71,2.45-13.17,5.61-19.69,8.56-8,3.63-16.25,6.86-23.85,11.21-8.74,5-17.04,10.83-25.27,16.66-9.83,6.96-19.78,13.85-28.96,21.61-7.96,6.74-15.05,14.53-22.27,22.1-7.52,7.86-15.18,15.66-21.96,24.14-5.96,7.46-11.06,15.66-16.05,23.82-7.38,12.06-14.86,24.12-21.29,36.69-5.35,10.46-9.41,21.59-13.71,32.56-2.46,6.28-4.63,12.73-6.26,19.28-1.79,7.19-2.69,14.6-4.2,21.86-1.84,8.82-4.45,17.51-5.74,26.41-1.34,9.22-2.11,18.61-1.98,27.91.13,9.97-1,19.89,1.46,30.03,2.12,8.75-.5,18.28,2.22,27.39,1.51,5.07,1.25,10.64,2.26,15.89.84,4.39,2.4,8.64,3.59,12.97,1.46,5.28,2.76,10.6,4.32,15.84,2.33,7.84,4.59,15.71,7.31,23.42,2.63,7.46,5.65,14.8,8.8,22.06,1.71,3.93,4.03,7.6,6.65,12.43,2.85-4.48,5.07-7.82,7.13-11.25,3.18-5.3,6.17-10.72,9.41-15.98,4.09-6.64,8.37-13.15,12.53-19.75,3.82-6.04,7.57-12.13,11.37-18.18,4.23-6.74,8.52-13.44,12.7-20.2,4.44-7.19,8.72-14.48,13.19-21.65,5.58-8.96,11.34-17.8,16.92-26.76,4.3-6.9,8.36-13.94,12.68-20.83,5.88-9.35,11.97-18.57,17.84-27.93,5.36-8.53,10.51-17.18,15.83-25.73,3.52-5.65,7.2-11.2,10.79-16.82,4.19-6.57,8.42-13.12,12.52-19.75,4.53-7.33,8.87-14.77,13.38-22.1,4.17-6.77,8.34-13.55,12.73-20.18,4.76-7.18,9.31-14.59,14.81-21.18,6.76-8.11,15.51-14.1,25.54-17.43,5.47-1.81,11.55-2.6,17.32-2.45,4.7.12,9.29,2.55,14.02,3.56,10.64,2.27,17,9.76,22.06,18.4,4.25,7.26,7.85,14.76,8.28,23.69.46,9.35,3.52,18.61,3.59,27.92.36,49.43.13,98.87.12,148.31,0,.9.2,1.81.48,4.1Z"/>
  </g>
</svg>