<?xml version="1.0" encoding="UTF-8"?>
<svg id="Laag_2" data-name="Laag 2" xmlns="http://www.w3.org/2000/svg" viewBox="0 0 214.94 24.77">
  <defs>
    <style>
      .cls-2 {
        fill: #0b0723;
        stroke-width: 0px;
      }
    </style>
  </defs>
  <g id="Isolation_Mode" data-name="Isolation Mode">
    <path class="cls-2" d="m136.87,24.25v-4.58c-2.55-.24-4.74-1.93-5.6-4.35-.06-.34.17-.67.51-.73.26-.05.53.08.66.31,1,2.79,4.08,4.24,6.87,3.24,1.51-.54,2.7-1.73,3.24-3.24.17-.3.56-.41.86-.23.23.13.35.39.31.65-.86,2.41-3.05,4.11-5.6,4.35v4.58c-.06.34-.39.57-.73.51-.26-.05-.46-.25-.51-.51h0Zm2.7.1c-.11-.08-.17-.2-.17-.34v-2.79c0-.27.18-.51.44-.59,4.15-1.28,6.48-5.67,5.2-9.82-.54-1.74-1.66-3.25-3.19-4.25-.38-.26-.49-.77-.23-1.16,0-.01.02-.02.03-.04l1.26-1.68c.27-.36.77-.45,1.14-.2,3.07,2.05,4.96,5.44,5.1,9.13.02.42-.27.79-.68.87l-.53.1-1.32.25c-.27,3.56-2.61,6.62-5.97,7.82v2.23c0,.35-.28.63-.62.63-.16,0-.32-.06-.44-.18h0Zm-4.86.13c-.23-.1-.38-.33-.38-.58v-2.23c-3.35-1.21-5.67-4.27-5.95-7.82l-1.33-.25-.54-.1c-.41-.08-.71-.45-.68-.87.14-3.69,2.04-7.08,5.1-9.13.37-.25.88-.16,1.14.2l1.26,1.68c.27.37.2.89-.17,1.17-.01,0-.02.02-.03.02-3.63,2.39-4.63,7.26-2.25,10.89,1,1.52,2.5,2.65,4.24,3.19.26.08.43.32.44.59v2.79c0,.13-.07.26-.17.34-.18.18-.45.23-.69.13Zm75.67-2.87c-2.12-4.26-4.26-8.51-6.41-12.76-.41-.8-.76-1.7-1.67-2.14-1.44-.71-2.89,0-3.77,1.76-2.27,4.52-4.58,9.02-6.82,13.55-.51,1.03-1.33,1.41-2.33,1.47-1.74.11-2.39-.83-1.63-2.31,2.52-4.86,5.06-9.71,7.58-14.58,1.21-2.33,2.93-3.8,5.75-3.85,2.9-.05,4.77,1.47,6,3.78,2.63,4.97,5.13,10.02,7.66,15.03.56,1.14-.1,1.93-1.77,1.95-1.12-.09-2-.75-2.58-1.92Zm-68.4,1.44c-.07-.27.05-.55.29-.69,2.86-1.48,4.88-4.19,5.48-7.35.06-.34.38-.56.72-.5.34.06.56.38.5.72-.67,3.54-2.93,6.57-6.13,8.23-.09.04-.19.07-.28.07-.28-.01-.51-.21-.58-.48Zm-9.85.41c-3.2-1.66-5.45-4.69-6.12-8.23-.06-.33.16-.65.49-.72.33-.06.65.16.72.49.6,3.16,2.62,5.87,5.48,7.35.3.17.4.56.22.86-.11.18-.3.3-.51.31-.1,0-.2-.02-.28-.07Zm-68.91.02c-.63,0-1.15-.51-1.15-1.15v-5.48c0-.29-.12-.56-.31-.77l-.65-.69-9.96-11.11c-.28-.29-.26-.75.03-1.03.14-.13.32-.2.51-.2h3.32c.32,0,.63.14.85.37l7.42,8.71c.43.47,1.16.51,1.63.08.03-.03.07-.06.1-.1l7.35-8.74s.07-.07.11-.11c.23-.18.52-.27.81-.27h18.55c.69,0,1.38.11,2.04.31,3.48,1.01,5.49,4.66,4.48,8.14-.82,2.83-3.42,4.76-6.37,4.74l.03-.02h-13.88c-.32,0-.58.26-.58.59v5.55c0,.63-.52,1.15-1.15,1.15h-.97c-.64,0-1.15-.51-1.15-1.15v-8.77c0-.36.29-.65.65-.65h17c1.73.02,3.19-1.27,3.4-2.98.17-1.83-1.18-3.45-3.01-3.62-.1-.01-.21-.01-.31-.01h-16.85c-.33,0-.65.14-.86.38l-7.99,9.4c-.17.21-.27.47-.27.74v5.52c0,.63-.52,1.15-1.15,1.15h-1.64Zm91.88-.07h-.98c-.63,0-1.15-.51-1.15-1.14h0V4.25c0-.63.51-1.15,1.15-1.15h17.67c.45,0,.9.05,1.34.16,2.64.61,4.51,2.96,4.51,5.67v1.16c0,3.22-2.63,5.83-5.85,5.82h-15.52v6.35c0,.63-.52,1.15-1.15,1.15h0Zm1.34-16.84c-.12.12-.19.29-.19.46v4.46c0,.83.2,1.14,1.15,1.14h14.38c1.41,0,2.56-1.13,2.56-2.54h0v-1.16c0-1.41-1.15-2.55-2.57-2.55h-14.87c-.17,0-.34.07-.46.19m-45.4,16.83c-.64,0-1.16-.52-1.16-1.16V7.24c0-.36-.29-.65-.65-.65h-8.56c-.63,0-1.15-.51-1.15-1.15v-1.25c0-.63.52-1.15,1.15-1.15h22.08c.63,0,1.15.51,1.15,1.15h0v1.25c0,.63-.52,1.15-1.15,1.15h-8.07c-.36,0-.65.29-.65.65v14.99c0,.64-.52,1.16-1.16,1.16h-1.81Zm-82.54-.01c-.45,0-.81-.37-.81-.81v-9.28c0-.36.29-.65.65-.65h17.52c.16-.02.31-.03.47-.02,1.42-.18,2.49-1.38,2.5-2.82v-.63c0-1.57-1.28-2.84-2.85-2.84H8.07c-2.64,0-4.78,2.13-4.79,4.77v4.16c0,2.64,2.14,4.78,4.78,4.78h15.34c.63,0,1.15.51,1.15,1.15v.98c0,.63-.52,1.15-1.15,1.15h-15.33C3.62,23.31,0,19.71,0,15.26h0v-4.18C0,6.64,3.62,3.04,8.07,3.04h37.91c3.38,0,6.13,2.73,6.14,6.11v.65c0,1.65-.66,3.22-1.84,4.37-.23.22-.27.58-.08.84.8,1.16,1.26,1.64,1.26,4.03v3.51c0,.45-.37.81-.81.81h-1.66c-.45,0-.81-.36-.81-.81v-3.51c0-1.24-.61-2.4-1.64-3.09-.05-.03-.1-.05-.15-.06-.13.02-.27.03-.4.02h-14.35c-.36,0-.65.29-.65.65v6c0,.45-.37.81-.81.81h-1.66Zm153.7-.01c-.63,0-1.15-.51-1.15-1.15h0V4.2c0-.63.52-1.15,1.15-1.15h.99c.63,0,1.15.51,1.15,1.15v18.03c0,.63-.52,1.15-1.15,1.15h-.99Zm-46.01-12.24c-.46,0-.84-.37-.84-.84V.84C135.37.37,135.74,0,136.21,0h2.57c.46,0,.84.37.84.84v9.46c0,.46-.38.84-.84.84h-2.57Z"/>
  </g>
</svg>