<?xml version="1.0" encoding="UTF-8"?>
<svg id="Laag_2" data-name="Laag 2" xmlns="http://www.w3.org/2000/svg" viewBox="0 0 235.46 179.77">
  <defs>
    <style>
      .cls-1 {
        fill: #fff;
        stroke-width: 0px;
      }
    </style>
  </defs>
  <g id="Layer_1" data-name="Layer 1">
    <path class="cls-1" d="m235.46,125.31v6.96c-.35,4.63-.6,9.28-1.11,13.9-.18,1.64-.48,3.9-1.59,4.72-17.16,12.62-36.07,21.91-56.26,28.58-1.06.35-3.14.02-3.65-.73-3.62-5.39-7.09-10.89-10.34-16.52-1.73-2.98-.78-4.85,2.78-6.16,4.96-1.83,9.61-4.5,14.7-6.96-3.98-2.67-3.93-2.53-10.06-.06-23.43,9.44-47.85,12.46-72.68,8.7-12.06-1.83-23.69-6.52-35.55-9.77-1.94-.53-4.1-.28-6.16-.39-.1.54-.19,1.07-.29,1.61,4.64,2.31,9.09,5.23,13.97,6.77,4.73,1.5,4.71,3.92,2.8,7.22-2.85,4.92-6.05,9.63-9,14.49-1.3,2.14-2.58,2.51-5.14,1.66-16.6-5.53-32.07-13.28-47.07-22.22-7.73-4.61-12.39-10.05-10.31-19.48.14-.63.03-1.32.02-1.98-.45-15.96-.11-31.89,3.25-47.57,5.08-23.72,14.71-45.66,26.79-66.59,2.53-4.39,5.58-8.33,10.73-10.02,3.39-1.11,6.7-2.48,10.1-3.52C60.28,5.25,69.21,2.65,78.13,0c2.66,0,5.31,0,7.97,0,1.59,3.52,3.09,7.09,4.86,10.52.36.7,1.75,1.3,2.62,1.24,7.14-.49,14.28-1.67,21.41-1.63,8.79.05,17.57,1.13,26.37,1.63.87.05,2.26-.55,2.62-1.25,1.77-3.43,3.26-7,4.86-10.52,2.99,0,5.97,0,8.96,0,11.01,3.54,22,7.13,33.03,10.59,5.09,1.59,8.97,4.13,12.02,8.92,9.81,15.4,18.03,31.63,23.27,49,5.17,17.11,9.02,34.69,8.35,52.85-.05,1.3.65,2.64,1,3.96Zm-58.69-26.94c.07-11.35-9.65-22.95-20.05-22.69-12.47.3-20.58,10.46-20.72,22.91-.14,12.8,10.71,22.67,20.92,23,9.13.3,20.48-11.72,19.85-23.22Zm-98.3,23.27c1.6-.28,3.24-.41,4.78-.88,14.1-4.29,21.75-23.77,10.16-37.36-4.46-5.24-9.79-8.59-17.51-7.38-11.64,1.81-21.03,16.61-16.58,29.54,2.8,8.12,10.61,16.54,19.15,16.08Z"/>
  </g>
</svg>