<?xml version="1.0" encoding="UTF-8"?>
<svg id="Laag_2" data-name="Laag 2" xmlns="http://www.w3.org/2000/svg" viewBox="0 0 23.32 24.77">
  <defs>
    <style>
      .cls-1 {
        fill: #fff;
        stroke-width: 0px;
      }
    </style>
  </defs>
  <g id="Laag_2-2" data-name="Laag 2">
    <g id="Isolation_Mode" data-name="Isolation Mode">
      <path class="cls-1" d="m11.04,24.25v-4.58c-2.55-.24-4.74-1.93-5.6-4.35-.06-.34.17-.67.51-.73.26-.05.53.08.66.31,1,2.79,4.08,4.24,6.87,3.24,1.51-.54,2.7-1.73,3.24-3.24.17-.3.56-.41.86-.23.23.13.35.39.31.65-.86,2.41-3.05,4.11-5.6,4.35v4.58c-.06.34-.39.57-.73.51-.26-.05-.46-.25-.51-.51h0Zm2.7.1c-.11-.08-.17-.2-.17-.34v-2.79c0-.27.18-.51.44-.59,4.15-1.28,6.48-5.67,5.2-9.82-.54-1.74-1.66-3.25-3.19-4.25-.38-.26-.49-.77-.23-1.16,0-.01.02-.02.03-.04l1.26-1.68c.27-.36.77-.45,1.14-.2,3.07,2.05,4.96,5.44,5.1,9.13.02.42-.27.79-.68.87l-.53.1-1.32.25c-.27,3.56-2.61,6.62-5.97,7.82v2.23c0,.35-.28.63-.62.63-.16,0-.32-.06-.44-.18h0l-.02.02Zm-4.86.13c-.23-.1-.38-.33-.38-.58v-2.23c-3.35-1.21-5.67-4.27-5.95-7.82l-1.33-.25-.54-.1c-.41-.08-.71-.45-.68-.87.14-3.69,2.04-7.08,5.1-9.13.37-.25.88-.16,1.14.2l1.26,1.68c.27.37.2.89-.17,1.17,0,0-.02.02-.03.02-3.63,2.39-4.63,7.26-2.25,10.89,1,1.52,2.5,2.65,4.24,3.19.26.08.43.32.44.59v2.79c0,.13-.07.26-.17.34-.18.18-.45.23-.69.13v-.02Zm7.27-1.43c-.07-.27.05-.55.29-.69,2.86-1.48,4.88-4.19,5.48-7.35.06-.34.38-.56.72-.5s.56.38.5.72c-.67,3.54-2.93,6.57-6.13,8.23-.09.04-.19.07-.28.07-.28-.01-.51-.21-.58-.48h0Zm-9.85.41C3.1,21.8.85,18.77.18,15.23c-.06-.33.16-.65.49-.72.33-.06.65.16.72.49.6,3.16,2.62,5.87,5.48,7.35.3.17.4.56.22.86-.11.18-.3.3-.51.31-.1,0-.2-.02-.28-.07h0Zm4.06-12.32c-.46,0-.84-.37-.84-.84V.84c.02-.47.39-.84.86-.84h2.57c.46,0,.84.37.84.84v9.46c0,.46-.38.84-.84.84h-2.59Z"/>
    </g>
  </g>
</svg>