<?xml version="1.0" encoding="UTF-8"?>
<svg id="Laag_2" data-name="Laag 2" xmlns="http://www.w3.org/2000/svg" viewBox="0 0 277 284.14">
  <defs>
    <style>
      .cls-1 {
        fill: #fff;
        stroke-width: 0px;
      }
    </style>
  </defs>
  <g id="Layer_1" data-name="Layer 1">
    <path class="cls-1" d="m.03.14C25.26.16,50.49.44,75.71,0c6.1-.1,9.69,1.94,12.85,6.68,10.55,15.84,21.26,31.57,31.98,47.29,10.26,15.06,20.61,30.06,30.95,45.06.72,1.05,1.75,1.88,2.85,3.04,7.06-7.99,14.01-15.69,20.77-23.56,6.61-7.69,12.95-15.61,19.53-23.33,12.02-14.09,24.1-28.13,36.2-42.14,3.23-3.73,6.55-7.39,10-10.92.93-.95,2.45-1.82,3.73-1.85,7.29-.17,14.58-.08,22.69-.08-.59,1.85-.66,3.56-1.54,4.58-9.2,10.7-18.58,21.24-27.82,31.91-13.59,15.68-27.11,31.43-40.66,47.15-9.1,10.56-18.13,21.17-27.3,31.66-2.57,2.95-3.53,5.06-.79,9.02,21.95,31.69,43.51,63.66,65.29,95.47,13.42,19.61,27.06,39.07,40.51,58.66,1.05,1.53,1.38,3.56,2.05,5.36h-83.69c-2.21-3.73-4.22-7.59-6.67-11.15-14-20.37-28.11-40.66-42.17-60.98-8.39-12.12-16.76-24.25-25.41-36.76-8.47,9.59-16.72,18.73-24.74,28.06-10.87,12.66-21.48,25.56-32.36,38.21-9.63,11.19-19.54,22.15-29.2,33.32-2.51,2.9-4.56,6.19-6.83,9.3-7.8,0-15.62-.25-23.41.12-3.14.15-2.45-1.46-2.5-3.11,1.28-1.42,2.58-2.82,3.84-4.26,9.42-10.74,18.91-21.41,28.22-32.25,13.2-15.36,26.19-30.9,39.39-46.26,11.65-13.56,23.47-26.98,35.52-40.83-12.35-17.77-24.76-35.48-37.02-53.3C50.62,75.96,31.38,47.71,12.02,19.55,8.18,13.97,4.04,8.6.03,3.13V.14Zm35.51,19.87c4.01,5.61,7.45,10.31,10.78,15.09,23,32.97,45.96,65.96,68.97,98.93,19.93,28.55,39.93,57.06,59.87,85.61,9.78,14,19.39,28.13,29.4,41.98,1.36,1.87,4.51,3.09,6.97,3.38,4.59.53,9.28.15,13.92.15,5.18,0,10.36,0,16.48,0-9.38-13.39-18.07-25.73-26.69-38.12-9.94-14.29-19.75-28.68-29.72-42.95-11.65-16.68-23.43-33.26-35.1-49.91-9.35-13.32-18.63-26.69-27.94-40.04-15.92-22.82-31.76-45.68-47.87-68.36-1.66-2.34-2.57-6-7.09-5.86-10.28.34-20.57.11-31.98.11Z"/>
  </g>
</svg>